# xmcd CD database file
#
# Track frame offsets:
#	150
#	13182
#	25627
#	37382
#	49034
#	61439
#	73047
#	86504
#	100512
#	110549
#	122512
#	134594
#
# Disc length: 1964 seconds
#
# Revision: 4
# Processed by: cddbd v1.5.2PL0 Copyright (c) Steve Scherf et al.
# Submitted via: CDex 1.51
#
DISCID=a207aa0c
DTITLE=Howlin' Wolf - The Real Folk Blues
DYEAR=1900
DGENRE=Blues
TTITLE0=Killing Floor
TTITLE1=Louise
TTITLE2=Poor Boy
TTITLE3=Sittin' On Top Of The World
TTITLE4=Nature
TTITLE5=My Country Sugar Mama (a.k.a. Sugar Mama)
TTITLE6=Tail Dragger
TTITLE7=Three Hundred Pounds Of Joy
TTITLE8=Natchez Burning
TTITLE9=Built For Comfort
TTITLE10=Ooh Baby, Hold Me
TTITLE11=Tell Me What I've Done
EXTD=
EXTT0=
EXTT1=
EXTT2=
EXTT3=
EXTT4=
EXTT5=
EXTT6=
EXTT7=
EXTT8=
EXTT9=
EXTT10=
EXTT11=
PLAYORDER=
